<svg width="24" height="22" viewBox="0 0 24 22" fill="none" xmlns="http://www.w3.org/2000/svg">
<path d="M1.16129 0.00292969C0.519927 0.00292969 0 0.525264 0 1.1696C0 1.81393 0.519927 2.33626 1.16129 2.33626H22.8387C23.4801 2.33626 24 1.81393 24 1.1696C24 0.525264 23.4801 0.00292969 22.8387 0.00292969H1.16129Z" fill="#1C1A1B"/>
<path d="M1.16129 9.33626C0.519927 9.33626 0 9.8586 0 10.5029C0 11.1473 0.519927 11.6696 1.16129 11.6696H22.8387C23.4801 11.6696 24 11.1473 24 10.5029C24 9.8586 23.4801 9.33626 22.8387 9.33626H1.16129Z" fill="#1C1A1B"/>
<path d="M1.16129 18.6696C0.519927 18.6696 0 19.1919 0 19.8363C0 20.4806 0.519927 21.0029 1.16129 21.0029H22.8387C23.4801 21.0029 24 20.4806 24 19.8363C24 19.1919 23.4801 18.6696 22.8387 18.6696H1.16129Z" fill="#1C1A1B"/>
</svg>
