<svg width="72" height="80" viewBox="0 0 72 80" fill="none" xmlns="http://www.w3.org/2000/svg">
<g clip-path="url(#clip0_91_471)">
<path d="M72 36.2104C72 56.2096 55.8808 72.4207 35.9985 72.4207C31.8157 72.4207 27.799 71.7024 24.0651 70.383C24.0651 70.383 11.5137 81.0174 2.94401 79.9208C2.94401 79.9208 10.6101 70.7026 7.01024 57.6815C2.60297 51.6738 0 44.247 0 36.2104C0 16.2111 16.1192 0 35.9985 0C55.8779 0 72 16.2111 72 36.2104Z" fill="#9CB5AA"/>
<path d="M61.0984 38.4562V40.8869C61.0984 49.2285 54.3768 55.9926 46.084 55.9926H25.7674C17.4746 55.9926 10.7529 49.2285 10.7529 40.8869V38.4562C10.7529 36.3276 11.1027 34.2811 11.7469 32.3694V36.2162C11.7469 41.7929 16.2416 46.314 21.7857 46.314H50.532C56.079 46.314 60.5708 41.7929 60.5708 36.2162V33.9937C60.9148 35.4245 61.0984 36.9199 61.0984 38.4562Z" fill="#F2F2F2"/>
<path d="M52.52 22.5825C51.8787 22.4505 51.2141 22.3831 50.5321 22.3831H21.7857C20.8413 22.3831 19.9289 22.515 19.0632 22.7613C22.0597 20.7295 25.6683 19.5449 29.5509 19.5449H30.2446C30.265 20.3747 30.9413 21.0402 31.772 21.0402H40.4262C40.8489 21.0402 41.2278 20.8673 41.5047 20.5887C41.7729 20.319 41.942 19.9525 41.9507 19.5449H42.3005C46.0694 19.5449 49.5789 20.662 52.52 22.5825Z" fill="#F2F2F2"/>
<path d="M41.9536 19.5007C41.9536 19.5007 41.9536 19.5301 41.9507 19.5447C41.942 19.9523 41.7729 20.3188 41.5047 20.5885C41.2278 20.867 40.8489 21.04 40.4262 21.04H31.772C30.9413 21.04 30.265 20.3745 30.2446 19.5447C30.2417 19.5301 30.2417 19.5154 30.2417 19.5007C30.2417 19.0756 30.4137 18.6915 30.6906 18.413C30.9675 18.1373 31.3493 17.9644 31.772 17.9644H40.4262C41.2686 17.9644 41.9536 18.6504 41.9536 19.5007Z" fill="#BCBCBC"/>
<path d="M36.1589 13.7893C37.7768 13.7893 39.0883 12.4701 39.0883 10.8427C39.0883 9.21527 37.7768 7.896 36.1589 7.896C34.541 7.896 33.2294 9.21527 33.2294 10.8427C33.2294 12.4701 34.541 13.7893 36.1589 13.7893Z" fill="#FDFDFD"/>
<path d="M36.7272 13.6836H35.3864V17.9643H36.7272V13.6836Z" fill="#BCBCBC"/>
<path d="M49.4098 65.7592C49.4098 67.9905 48.5091 70.0106 47.0575 71.4708C45.6059 72.9309 43.5947 73.8369 41.3794 73.8369H30.6498C26.2133 73.8369 22.6193 70.2217 22.6193 65.7592C22.6193 65.4748 22.6339 65.1904 22.663 64.9148C23.0828 68.9786 26.499 72.1451 30.6498 72.1451H41.3794C43.5947 72.1451 45.603 71.2421 47.0575 69.779C48.3226 68.5065 49.1708 66.8059 49.3661 64.9148C49.3952 65.1904 49.4098 65.4748 49.4098 65.7592Z" fill="#FDFDFD"/>
<path d="M49.3661 64.9148C49.1708 66.8059 48.3226 68.5065 47.0575 69.779C45.603 71.2421 43.5947 72.1451 41.3794 72.1451H30.6498C26.499 72.1451 23.0828 68.9785 22.6631 64.9148C22.8584 63.0236 23.7037 61.3231 24.9716 60.0476C25.3243 59.6929 25.7091 59.3733 26.1201 59.0889C27.4376 60.0418 29.0524 60.6018 30.7955 60.6018H41.5251C43.2041 60.6018 44.7635 60.0828 46.0519 59.1944C47.8708 60.5021 49.1213 62.5574 49.3661 64.9148Z" fill="#F2F2F2"/>
<path d="M46.0519 59.1943C44.7635 60.0827 43.2041 60.6017 41.5251 60.6017H30.7955C29.0524 60.6017 27.4376 60.0417 26.1201 59.0888C27.4085 58.2004 28.9708 57.6814 30.6498 57.6814H41.3794C43.1225 57.6814 44.7373 58.2414 46.0519 59.1943Z" fill="#FDFDFD"/>
<path d="M47.7513 65.2138C47.282 63.9589 47.8154 62.5574 48.9901 61.9388C50.9489 60.9067 53.8987 59.0625 56.1548 56.3914C56.9914 55.4004 58.4343 55.1951 59.5302 55.8871C60.874 56.7374 61.1801 58.5934 60.1511 59.8131C57.3412 63.135 53.8055 65.3692 51.4211 66.6241C50.0278 67.3571 48.3109 66.6974 47.7542 65.2168L47.7513 65.2138Z" fill="#FDFDFD"/>
<path d="M52.52 22.5824C51.8787 22.4505 51.2141 22.3831 50.532 22.3831H21.7857C20.8413 22.3831 19.9289 22.515 19.0632 22.7613C15.682 25.0483 13.0819 28.4171 11.7469 32.3695V36.2163C11.7469 41.793 16.2416 46.3142 21.7857 46.3142H50.532C56.079 46.3142 60.5708 41.793 60.5708 36.2163V33.9938C59.4282 29.2322 56.49 25.1743 52.52 22.5824ZM56.1694 40.5381C55.6884 41.6141 54.7382 42.4087 53.6247 42.8837C51.8437 43.646 49.984 43.948 48.0398 43.9246C44.061 43.8747 40.0823 43.9099 36.1064 43.9099C31.6671 43.9099 27.2248 44.0037 22.7913 43.8689C20.5673 43.8014 18.352 43.303 16.7459 41.4969C16.0142 40.673 15.6091 39.7054 15.4867 38.5619C15.0378 34.3691 17.5737 32.2522 20.4011 30.9973C22.0393 30.2702 23.8406 29.9183 25.6595 29.9125C32.6464 29.8949 39.6334 29.8656 46.6174 29.9242C49.1533 29.9447 51.6222 30.5487 53.7267 32.0206C55.1375 33.0087 56.1548 34.3398 56.6707 36.1342C57.1371 37.7615 56.7815 39.1688 56.1694 40.5381Z" fill="#FDFDFD"/>
<path d="M53.7267 32.0206C51.6222 30.5487 49.1533 29.9447 46.6174 29.9242C39.6305 29.8656 32.6464 29.8949 25.6595 29.9125C23.8406 29.9154 22.0393 30.2702 20.4011 30.9973C17.5737 32.2522 15.0378 34.3692 15.4867 38.5619C15.6091 39.7054 16.0142 40.673 16.7459 41.4969C18.352 43.303 20.5673 43.8044 22.7913 43.8689C27.2277 44.0008 31.6671 43.907 36.1064 43.9099C40.0852 43.9099 44.064 43.8747 48.0398 43.9246C49.984 43.948 51.8466 43.646 53.6247 42.8837C54.7382 42.4058 55.6884 41.6142 56.1694 40.5381C56.7815 39.1718 57.1371 37.7615 56.6707 36.1342C56.1548 34.3398 55.1404 33.0087 53.7267 32.0206ZM27.3676 41.3796C25.0474 41.3327 22.9545 39.7347 22.9429 36.8145C22.9341 34.1375 25.0503 32.3754 27.3385 32.3578C29.6412 32.3402 31.9061 34.2108 31.8128 36.9024C31.8303 39.5119 29.6587 41.4265 27.3647 41.3796H27.3676ZM44.3817 41.3796C42.0819 41.406 39.8666 39.4357 39.9715 36.8115C39.8957 34.2431 42.1168 32.3226 44.4458 32.3578C46.7427 32.393 48.8793 34.1258 48.8414 36.8672C48.8006 39.7934 46.6669 41.3503 44.3817 41.3796Z" fill="#F3A38C"/>
<path d="M35.9227 51.9611C33.8182 51.8497 31.8594 51.4363 30.1892 50.0847C29.9327 49.8765 29.7083 49.6243 29.4751 49.3868C29.1049 49.0057 28.8804 48.5923 29.3293 48.1261C29.7374 47.7039 30.335 47.7068 30.7605 48.1847C31.9702 49.5334 33.5151 50.0026 35.2582 50.0993C36.8205 50.1843 38.3275 50.0055 39.7208 49.2901C40.2047 49.0409 40.5924 48.5893 41.0033 48.2052C41.493 47.7449 42.0323 47.6599 42.4112 48.1349C42.5832 48.3489 42.659 48.8708 42.522 49.0702C41.6504 50.3163 40.4204 51.0786 38.9484 51.4099C37.9486 51.6357 36.9313 51.7823 35.9198 51.967L35.9227 51.9611Z" fill="#F3A38C"/>
<path d="M23.9835 36.9171C23.9572 35.2136 25.3505 33.5218 27.3385 33.5365C29.4751 33.5511 30.7285 35.1168 30.7664 36.8379C30.8042 38.6118 29.513 40.2537 27.3385 40.2625C25.3097 40.2713 23.9135 38.5121 23.9835 36.9171ZM25.7003 36.0228C25.5313 36.6884 26.1405 36.8233 26.5719 36.9669C26.9887 37.1047 27.4492 36.5213 27.4463 35.9847C27.4463 35.4218 27.1752 35.0728 26.6185 35.023C26.0676 34.9732 25.7062 35.366 25.7003 36.0199V36.0228Z" fill="#465E53"/>
<path d="M23.9835 36.9171C23.9572 35.2136 25.3505 33.5218 27.3385 33.5365C29.4751 33.5511 30.7285 35.1168 30.7664 36.8379C30.8042 38.6118 29.513 40.2537 27.3385 40.2625C25.3097 40.2713 23.9135 38.5121 23.9835 36.9171ZM25.7003 36.0228C25.5313 36.6884 26.1405 36.8233 26.5719 36.9669C26.9887 37.1047 27.4492 36.5213 27.4463 35.9847C27.4463 35.4218 27.1752 35.0728 26.6185 35.023C26.0676 34.9732 25.7062 35.366 25.7003 36.0199V36.0228Z" fill="black" fill-opacity="0.2"/>
<path d="M47.8008 36.9406C47.8562 38.5327 46.4483 40.2743 44.4342 40.2625C42.2946 40.2479 40.98 38.6558 41.0121 36.8438C41.0413 35.1286 42.2917 33.5629 44.4079 33.5336C46.4104 33.5043 47.8475 35.2136 47.8008 36.9406ZM46.084 36.0229C46.0781 35.3983 45.7429 35.0348 45.2241 35.0201C44.6732 35.0054 44.3292 35.3778 44.3263 35.9935C44.3263 36.5272 44.7985 37.1165 45.2066 36.967C45.6263 36.8145 46.2793 36.7089 46.084 36.0229Z" fill="#465E53"/>
<path d="M47.8008 36.9406C47.8562 38.5327 46.4483 40.2743 44.4342 40.2625C42.2946 40.2479 40.98 38.6558 41.0121 36.8438C41.0413 35.1286 42.2917 33.5629 44.4079 33.5336C46.4104 33.5043 47.8475 35.2136 47.8008 36.9406ZM46.084 36.0229C46.0781 35.3983 45.7429 35.0348 45.2241 35.0201C44.6732 35.0054 44.3292 35.3778 44.3263 35.9935C44.3263 36.5272 44.7985 37.1165 45.2066 36.967C45.6263 36.8145 46.2793 36.7089 46.084 36.0229Z" fill="black" fill-opacity="0.2"/>
<path d="M25.7032 36.0229C25.7091 35.369 26.0676 34.9761 26.6214 35.026C27.1782 35.0758 27.4492 35.4247 27.4492 35.9877C27.4492 36.5242 26.9916 37.1077 26.5748 36.9699C26.1463 36.8262 25.5342 36.6914 25.7032 36.0258V36.0229Z" fill="#FDFDFD"/>
<path d="M46.084 36.0229C46.2763 36.709 45.6263 36.8145 45.2066 36.967C44.7985 37.1165 44.3234 36.5272 44.3263 35.9936C44.3263 35.3778 44.6732 35.0025 45.2241 35.0201C45.7429 35.0348 46.0781 35.4013 46.084 36.0229Z" fill="#FDFDFD"/>
</g>
<defs>
<clipPath id="clip0_91_471">
<rect width="72" height="80" fill="white"/>
</clipPath>
</defs>
</svg>
