<svg width="24" height="22" viewBox="0 0 24 22" fill="none" xmlns="http://www.w3.org/2000/svg">
<path fill-rule="evenodd" clip-rule="evenodd" d="M23.4528 2.60971C23.9514 2.16504 23.9951 1.40039 23.5504 0.901818C23.1058 0.403242 22.3411 0.359541 21.8425 0.80421L12.0384 9.54826L2.23372 0.804959C1.73511 0.360327 0.970462 0.404084 0.525831 0.902692C0.0811988 1.4013 0.124955 2.16595 0.623564 2.61058L10.2211 11.1691L0.624282 19.7283C0.125707 20.173 0.0820062 20.9376 0.526675 21.4362C0.971344 21.9348 1.73599 21.9785 2.23457 21.5338L12.0386 12.7898L21.8432 21.5331C22.3418 21.9777 23.1065 21.934 23.5511 21.4354C23.9957 20.9367 23.952 20.1721 23.4534 19.7275L13.8559 11.169L23.4528 2.60971Z" fill="#1C1A1B"/>
</svg>
